<?xml version="1.0" encoding="utf-8"?>
<!-- Generator: Adobe Illustrator 23.0.2, SVG Export Plug-In . SVG Version: 6.00 Build 0)  -->
<svg version="1.1" id="Layer_1" xmlns="http://www.w3.org/2000/svg" xmlns:xlink="http://www.w3.org/1999/xlink" x="0px" y="0px"
	 viewBox="0 0 106.9985 237.1831" enable-background="new 0 0 106.9985 237.1831" xml:space="preserve">
<g>
	<path d="M26.4565,142.7808v-15.9629v-18.9375V96.4058c-5.4717,1.3183-9.6616,1.9218-13.292,1.9575h-0.0137h-0.0137
		c-1.9335-0.0049-3.4921-0.1758-5.0512-0.5557c-2.2442-0.5527-4.1138-1.4814-5.7295-2.832
		c-0.1143-0.0962-0.1802-0.231-0.2139-0.3906c-1.1577,3.9321-1.6587,8.3491-1.1631,13.3149
		C2.0927,119.0561,12.8828,137.9858,26.4565,142.7808z"/>
	<path d="M74.8193,50.6982h-30.794c0.0669,1.4244,0.1426,3.6504,0.1426,6.4248c-0.0019,4.4117-0.1909,10.2046-0.9272,16.3697
		c-0.0879,0.7353-0.1714,1.5278-0.2535,2.3432c1.2779,1.1612,2.2671,2.6582,2.8169,4.3985c1.4444,4.5698-0.58,9.417-4.5864,11.6992
		c-0.8677,5.4995-2.0976,10.8037-4.7768,15.0298c-1.6856,2.7099-4.4688,5.0957-7.9844,5.7685v112.0879
		c0,6.8301,5.5371,12.3633,12.3633,12.3633c6.8281,0,12.3652-5.5332,12.3652-12.3633v-90.2715h4.6348v90.2715
		c0,6.8301,5.5371,12.3633,12.3632,12.3633c6.8277,0,12.3648-5.5332,12.3648-12.3633V72.3525c0.6504,1.0401,1.3237,2.2993,2,3.8081
		c0.4248,0.9483,0.8501,1.9849,1.2715,3.147c2.8178,7.8135,5.1894,20.6299,5.1792,40.6382c0,5.5137-0.1773,11.5703-0.5655,18.2246
		c-0.2558,4.4092,3.1109,8.1953,7.522,8.4512c0.1587,0.0097,0.3174,0.0136,0.4741,0.0136c4.2056,0.001,7.73-3.2832,7.979-7.5332
		c0.4024-6.9335,0.5904-13.2998,0.5904-19.1562c-0.0396-30.1826-4.8614-46.8862-11.4341-56.9307
		c-3.2842-4.9853-7.1274-8.1826-10.6777-9.956c-1.0147-0.5113-1.9873-0.8946-2.9097-1.1963
		c-2.1919-0.7178-4.0581-0.9224-5.3262-0.937C76.0629,50.7827,75.4516,50.6982,74.8193,50.6982z"/>
	<path d="M29.7245,102.6177c1.1128-1.6905,2.1153-4.5108,2.8379-7.8242c-1.4448,0.4106-2.8081,0.7797-4.1059,1.1142v8.2144
		C28.8466,103.7808,29.2509,103.3022,29.7245,102.6177z"/>
	<path d="M55.5024,0c-12.4263,0-22.5,10.0732-22.5,22.5S43.0761,45,55.5024,45c12.4263,0,22.5005-10.0732,22.5005-22.5
		S67.9286,0,55.5024,0z"/>
	<path d="M3.6396,93.4443v-0.0019c1.644,1.375,3.3657,2.039,4.9165,2.4228c1.5664,0.3789,3.0483,0.4932,4.5874,0.4981
		c6.04-0.0596,13.6528-1.7774,25.5361-5.4873c4.2134-1.3321,6.5493-5.8252,5.2178-10.0391
		c-1.3311-4.2129-5.8252-6.5488-10.0381-5.2178c-11.0864,3.5469-18.1352,4.8028-20.7158,4.7432
		c-0.0806,0-0.1377-0.0029-0.2075-0.0049c2.105-0.7031,7.2153-2.4038,13.5205-4.4516v-0.2613c0.665-0.5737,1.3325-1.1386,2-1.6972
		v1.31c1.5498-0.501,3.1543-1.0176,4.793-1.5415c0.6455-0.2046,1.3027-0.3359,1.9653-0.4072
		c0.0283-0.251,0.0542-0.5186,0.083-0.7637c0.6846-5.7417,0.8696-11.2446,0.8696-15.4219c0-2.3232-0.0556-4.2368-0.1113-5.5586
		c-0.0249-0.5932-0.0488-1.0527-0.0684-1.3876c-1.7177-0.066-3.4692,0.4116-4.9731,1.4931
		c-0.0459,0.0337-1.4717,1.0591-3.6729,2.7271c-2.7402,2.0771-6.6845,5.1528-10.6928,8.5757
		c-3.6236,3.1035-7.2867,6.456-10.2959,9.8378c-1.5093,1.7032-2.8658,3.4024-4.0166,5.3086
		c-1.0962,1.9317-2.2495,4.0303-2.3291,7.4444c-0.104,2.1787,0.916,5.0542,2.6889,6.9907c0.0069-0.0132,0.0137-0.0264,0.0205-0.04
		C2.997,92.8423,3.2993,93.1572,3.6396,93.4443z"/>
</g>
</svg>
